<?xml version="1.0" standalone="no"?>
<!DOCTYPE svg PUBLIC "-//W3C//DTD SVG 20010904//EN"
 "http://www.w3.org/TR/2001/REC-SVG-20010904/DTD/svg10.dtd">
<svg version="1.0" xmlns="http://www.w3.org/2000/svg"
 width="120.000000pt" height="120.000000pt" viewBox="0 0 120.000000 120.000000"
 preserveAspectRatio="xMidYMid meet">
<metadata>
Created by potrace 1.16, written by Peter Selinger 2001-2019
</metadata>
<g transform="translate(0.000000,120.000000) scale(0.100000,-0.100000)"
fill="#000000" stroke="none">
<path d="M396 1175 c-173 -60 -320 -209 -375 -383 -20 -62 -23 -86 -19 -214 3
-132 5 -148 32 -208 63 -139 163 -248 285 -310 95 -47 154 -60 281 -60 128 0
188 13 280 61 146 75 257 209 304 368 22 74 22 268 0 342 -44 151 -157 292
-289 361 -109 56 -161 68 -304 67 -106 0 -137 -4 -195 -24z m313 -116 c76 -17
154 -62 217 -124 190 -188 192 -477 4 -665 -257 -257 -680 -144 -784 209 -18
62 -20 164 -5 230 36 157 179 304 339 347 55 15 170 17 229 3z"/>
<path d="M590 790 l0 -130 -58 0 c-57 0 -58 0 -120 -63 l-62 -63 0 -122 0
-122 127 0 127 0 53 52 53 52 0 -52 0 -52 70 0 70 0 0 315 0 315 -130 0 -130
0 0 -130z"/>
</g>
</svg>
